<?xml version="1.0" standalone="no"?>
<!DOCTYPE svg PUBLIC "-//W3C//DTD SVG 20010904//EN"
 "http://www.w3.org/TR/2001/REC-SVG-20010904/DTD/svg10.dtd">
<svg version="1.0" xmlns="http://www.w3.org/2000/svg"
 width="436.000000pt" height="313.000000pt" viewBox="0 0 436.000000 313.000000"
 preserveAspectRatio="xMidYMid meet">
<metadata>
Created by potrace 1.16, written by Peter Selinger 2001-2019
</metadata>
<g transform="translate(0.000000,313.000000) scale(0.100000,-0.100000)"
fill="#000000" stroke="none">
<path d="M3465 2900 l-220 -220 332 -332 333 -333 206 205 c113 113 212 217
220 232 17 32 18 86 3 125 -11 30 -437 466 -503 514 -32 24 -49 29 -95 29
l-55 0 -221 -220z"/>
<path d="M1300 2985 c-486 -67 -897 -323 -1165 -725 -34 -53 -78 -125 -96
-162 l-32 -66 52 -95 c152 -274 408 -527 672 -666 193 -102 384 -160 609 -186
l125 -15 682 682 c376 376 683 688 683 695 0 6 -42 50 -93 98 -334 310 -718
456 -1192 454 -82 -1 -193 -7 -245 -14z m394 -385 c110 -28 190 -74 272 -155
316 -315 174 -845 -260 -970 -125 -36 -298 -17 -415 45 -314 168 -412 553
-215 843 139 203 384 297 618 237z"/>
<path d="M1495 2218 c-81 -30 -128 -97 -128 -183 0 -57 18 -97 60 -137 37 -35
73 -48 137 -48 178 0 248 238 100 343 -45 31 -122 43 -169 25z"/>
<path d="M2122 1557 l-892 -892 0 -328 0 -327 338 0 337 0 890 890 890 890
-330 330 c-181 181 -332 330 -335 330 -3 0 -407 -402 -898 -893z"/>
</g>
</svg>
