<?xml version="1.0" encoding="UTF-8" standalone="no"?>
<!-- Created with Inkscape (http://www.inkscape.org/) -->

<svg
   width="8.1474657mm"
   height="3.7041674mm"
   viewBox="0 0 8.1474657 3.7041674"
   version="1.1"
   id="svg1"
   xml:space="preserve"
   inkscape:version="1.3.2 (091e20ef0f, 2023-11-25, custom)"
   sodipodi:docname="manage_record.svg"
   xmlns:inkscape="http://www.inkscape.org/namespaces/inkscape"
   xmlns:sodipodi="http://sodipodi.sourceforge.net/DTD/sodipodi-0.dtd"
   xmlns="http://www.w3.org/2000/svg"
   xmlns:svg="http://www.w3.org/2000/svg"><sodipodi:namedview
     id="namedview1"
     pagecolor="#ffffff"
     bordercolor="#000000"
     borderopacity="0.25"
     inkscape:showpageshadow="2"
     inkscape:pageopacity="0.0"
     inkscape:pagecheckerboard="0"
     inkscape:deskcolor="#d1d1d1"
     inkscape:document-units="mm"
     inkscape:zoom="11.388664"
     inkscape:cx="10.36118"
     inkscape:cy="5.9269461"
     inkscape:window-width="1920"
     inkscape:window-height="1011"
     inkscape:window-x="0"
     inkscape:window-y="0"
     inkscape:window-maximized="1"
     inkscape:current-layer="layer1" /><defs
     id="defs1"><style
       id="current-color-scheme"
       type="text/css">
   .ColorScheme-Text { color:#444444; } .ColorScheme-Highlight { color:#4285f4; } .ColorScheme-NeutralText { color:#ff9800; } .ColorScheme-PositiveText { color:#4caf50; } .ColorScheme-NegativeText { color:#f44336; }
  </style></defs><g
     inkscape:label="Слой 1"
     inkscape:groupmode="layer"
     id="layer1"
     transform="translate(-0.02175321,-0.01886775)"><path
       style="fill:currentColor;stroke-width:0.264583"
       class="ColorScheme-Text"
       d="m 3.1380162,0.07765931 c 0,0 -0.132292,-0.132281 -0.264584,0 l -0.470429,0.470376 0.79375,0.79374989 0.470429,-0.47037589 c 0.132292,-0.132292 0,-0.264584 0,-0.264584 z m -0.999596,0.734959 -2.11666699,2.11666689 v 0.79375 h 0.79375 L 2.9321702,1.6063682 Z"
       id="path1" /><path
       style="fill:#444444;stroke-width:0.264583"
       d="m 6.052552,0.78918779 c -1.5875,0 -2.1166667,1.32291671 -2.1166667,1.32291671 0,0 0.5291667,1.3229166 2.1166667,1.3229166 1.5874999,0 2.1166665,-1.3229166 2.1166665,-1.3229166 0,0 -0.5291666,-1.32291671 -2.1166665,-1.32291671 z m 0,0.52916671 a 0.79375,0.79375 0 0 1 0.7937499,0.79375 0.79375,0.79375 0 0 1 -0.7937499,0.79375 0.79375,0.79375 0 0 1 -0.79375,-0.79375 0.79375,0.79375 0 0 1 0.79375,-0.79375 z m 0,0.5291666 A 0.26458333,0.26458333 0 0 0 5.7879686,2.1121045 0.26458333,0.26458333 0 0 0 6.052552,2.3766878 0.26458333,0.26458333 0 0 0 6.3171352,2.1121045 0.26458333,0.26458333 0 0 0 6.052552,1.8475211 Z"
       id="path1-6" /></g></svg>
